# xmcd
#
# Track frame offsets: 
#        183
#        15140
#        35248
#        53683
#        68995
#        89583
#        106475
#        126583
#        144228
#        164908
#        181218
#        197368
#        213250
#        230580
#        257553
#        275808
#        291955
#        310015
#
# Disc length: 4374 seconds
#
# Revision: 13
# Processed by: cddbd v1.5.2PL0 Copyright (c) Steve Scherf et al.
# Submitted via: ExactAudioCopy v1.0b3
#
DISCID=0e111412
DTITLE=Various Artist - 18 Top-Hits
DYEAR=1993
DGENRE=Pop
TTITLE0=DJ Bobo - Keep On Dancing!
TTITLE1=Soul Asylum - Runaway Train
TTITLE2=Loft - Summer Summer
TTITLE3=Odyssey - Let Yourself Go
TTITLE4=The Hooters - Boys Will Be Boys
TTITLE5=Katrina and The Waves - Honey Lamb
TTITLE6=Disney Cast - The Jungle Book Groove
TTITLE7=Dance 2 Trance - Take A Free Fall
TTITLE8=Green Jelly - Three Little Pigs
TTITLE9=Bonnie Tyler - Sally Comes Around
TTITLE10=Stone and Stone - I Wish You Were Here
TTITLE11=Thomas Anders Feat. The Three Degrees - When Will I See You
TTITLE12=Inner Circle - Bad Boys
TTITLE13=Heroes Del Silencio - Nuestros Nombres
TTITLE14=Fury In The Slaughterhouse - Every Generation Got Its Own Dis
TTITLE14=ease
TTITLE15=2 Unlimited - Faces
TTITLE16=M.C. Sar and The Real McCoy - Another Night
TTITLE17=B.G. The Prince Of Rap - Can We Get Enough?
EXTD=
EXTT0=
EXTT1=
EXTT2=
EXTT3=
EXTT4=
EXTT5=
EXTT6=
EXTT7=
EXTT8=
EXTT9=
EXTT10=
EXTT11=
EXTT12=
EXTT13=
EXTT14=
EXTT15=
EXTT16=
EXTT17=
PLAYORDER=
